<mxfile host="app.diagrams.net" agent="Mozilla/5.0 (Windows NT 10.0; Win64; x64) AppleWebKit/537.36 (KHTML, like Gecko) Chrome/132.0.0.0 Safari/537.36" version="26.0.11">
  <diagram name="Page-1" id="dDUoGYSa5K9hc7WshwGc">
    <mxGraphModel dx="614" dy="614" grid="1" gridSize="10" guides="1" tooltips="1" connect="1" arrows="1" fold="1" page="1" pageScale="1" pageWidth="827" pageHeight="1169" math="0" shadow="0">
      <root>
        <mxCell id="0" />
        <mxCell id="1" parent="0" />
        <mxCell id="q2rgu7KSPJ2qD33lPn5Z-1" value="buyer" style="shape=umlActor;verticalLabelPosition=bottom;verticalAlign=top;html=1;outlineConnect=0;" vertex="1" parent="1">
          <mxGeometry x="150" y="100" width="30" height="60" as="geometry" />
        </mxCell>
        <mxCell id="q2rgu7KSPJ2qD33lPn5Z-2" value="" style="endArrow=none;html=1;rounded=0;" edge="1" parent="1">
          <mxGeometry width="50" height="50" relative="1" as="geometry">
            <mxPoint x="240" y="430" as="sourcePoint" />
            <mxPoint x="240" y="50" as="targetPoint" />
            <Array as="points">
              <mxPoint x="240" y="160" />
            </Array>
          </mxGeometry>
        </mxCell>
        <mxCell id="q2rgu7KSPJ2qD33lPn5Z-4" value="" style="endArrow=classic;html=1;rounded=0;" edge="1" parent="1">
          <mxGeometry width="50" height="50" relative="1" as="geometry">
            <mxPoint x="250" y="160" as="sourcePoint" />
            <mxPoint x="380" y="160" as="targetPoint" />
          </mxGeometry>
        </mxCell>
        <mxCell id="q2rgu7KSPJ2qD33lPn5Z-5" value="post order with product and quantity" style="ellipse;whiteSpace=wrap;html=1;" vertex="1" parent="1">
          <mxGeometry x="380" y="120" width="160" height="80" as="geometry" />
        </mxCell>
        <mxCell id="q2rgu7KSPJ2qD33lPn5Z-8" value="seller" style="shape=umlActor;verticalLabelPosition=bottom;verticalAlign=top;html=1;outlineConnect=0;" vertex="1" parent="1">
          <mxGeometry x="150" y="210" width="30" height="60" as="geometry" />
        </mxCell>
        <mxCell id="q2rgu7KSPJ2qD33lPn5Z-9" value="cosulting order" style="ellipse;whiteSpace=wrap;html=1;" vertex="1" parent="1">
          <mxGeometry x="380" y="230" width="140" height="80" as="geometry" />
        </mxCell>
        <mxCell id="q2rgu7KSPJ2qD33lPn5Z-10" value="" style="endArrow=classic;html=1;rounded=0;" edge="1" parent="1" target="q2rgu7KSPJ2qD33lPn5Z-9">
          <mxGeometry width="50" height="50" relative="1" as="geometry">
            <mxPoint x="210" y="170" as="sourcePoint" />
            <mxPoint x="260" y="120" as="targetPoint" />
          </mxGeometry>
        </mxCell>
        <mxCell id="q2rgu7KSPJ2qD33lPn5Z-11" value="" style="endArrow=classic;html=1;rounded=0;entryX=0;entryY=0.5;entryDx=0;entryDy=0;" edge="1" parent="1" target="q2rgu7KSPJ2qD33lPn5Z-9">
          <mxGeometry width="50" height="50" relative="1" as="geometry">
            <mxPoint x="200" y="270" as="sourcePoint" />
            <mxPoint x="300" y="230" as="targetPoint" />
          </mxGeometry>
        </mxCell>
        <mxCell id="q2rgu7KSPJ2qD33lPn5Z-12" value="modify information of order (exemple delivry in 3 day)" style="ellipse;whiteSpace=wrap;html=1;" vertex="1" parent="1">
          <mxGeometry x="390" y="340" width="120" height="80" as="geometry" />
        </mxCell>
        <mxCell id="q2rgu7KSPJ2qD33lPn5Z-13" value="" style="endArrow=classic;html=1;rounded=0;" edge="1" parent="1" target="q2rgu7KSPJ2qD33lPn5Z-12">
          <mxGeometry width="50" height="50" relative="1" as="geometry">
            <mxPoint x="180" y="280" as="sourcePoint" />
            <mxPoint x="230" y="230" as="targetPoint" />
          </mxGeometry>
        </mxCell>
        <mxCell id="q2rgu7KSPJ2qD33lPn5Z-14" value="Use case diagramme&amp;nbsp;" style="text;html=1;align=center;verticalAlign=middle;whiteSpace=wrap;rounded=0;" vertex="1" parent="1">
          <mxGeometry x="250" y="10" width="60" height="30" as="geometry" />
        </mxCell>
        <mxCell id="q2rgu7KSPJ2qD33lPn5Z-15" value="user" style="shape=umlActor;verticalLabelPosition=bottom;verticalAlign=top;html=1;outlineConnect=0;" vertex="1" parent="1">
          <mxGeometry x="150" y="20" width="30" height="60" as="geometry" />
        </mxCell>
        <mxCell id="q2rgu7KSPJ2qD33lPn5Z-16" value="login and register" style="ellipse;whiteSpace=wrap;html=1;" vertex="1" parent="1">
          <mxGeometry x="340" y="20" width="170" height="80" as="geometry" />
        </mxCell>
        <mxCell id="q2rgu7KSPJ2qD33lPn5Z-17" value="" style="endArrow=classic;html=1;rounded=0;entryX=-0.002;entryY=0.615;entryDx=0;entryDy=0;entryPerimeter=0;" edge="1" parent="1" target="q2rgu7KSPJ2qD33lPn5Z-16">
          <mxGeometry width="50" height="50" relative="1" as="geometry">
            <mxPoint x="230" y="69" as="sourcePoint" />
            <mxPoint x="300" y="30" as="targetPoint" />
          </mxGeometry>
        </mxCell>
        <mxCell id="q2rgu7KSPJ2qD33lPn5Z-18" value="buyer" style="shape=umlActor;verticalLabelPosition=bottom;verticalAlign=top;html=1;outlineConnect=0;" vertex="1" parent="1">
          <mxGeometry x="140" y="540" width="30" height="60" as="geometry" />
        </mxCell>
        <mxCell id="q2rgu7KSPJ2qD33lPn5Z-19" value="" style="endArrow=classic;html=1;rounded=0;" edge="1" parent="1" target="q2rgu7KSPJ2qD33lPn5Z-20">
          <mxGeometry width="50" height="50" relative="1" as="geometry">
            <mxPoint x="210" y="580" as="sourcePoint" />
            <mxPoint x="280" y="580" as="targetPoint" />
          </mxGeometry>
        </mxCell>
        <mxCell id="q2rgu7KSPJ2qD33lPn5Z-20" value="appliction register" style="rounded=0;whiteSpace=wrap;html=1;" vertex="1" parent="1">
          <mxGeometry x="290" y="550" width="120" height="60" as="geometry" />
        </mxCell>
        <mxCell id="q2rgu7KSPJ2qD33lPn5Z-23" value="" style="endArrow=classic;html=1;rounded=0;exitX=1;exitY=0.5;exitDx=0;exitDy=0;" edge="1" parent="1" source="q2rgu7KSPJ2qD33lPn5Z-20">
          <mxGeometry width="50" height="50" relative="1" as="geometry">
            <mxPoint x="440" y="600" as="sourcePoint" />
            <mxPoint x="490" y="580" as="targetPoint" />
          </mxGeometry>
        </mxCell>
        <mxCell id="q2rgu7KSPJ2qD33lPn5Z-24" value="frontend request&lt;div&gt;to microservice api&lt;/div&gt;" style="rounded=0;whiteSpace=wrap;html=1;" vertex="1" parent="1">
          <mxGeometry x="490" y="555" width="120" height="60" as="geometry" />
        </mxCell>
        <mxCell id="q2rgu7KSPJ2qD33lPn5Z-25" value="" style="endArrow=classic;html=1;rounded=0;exitX=1;exitY=0.5;exitDx=0;exitDy=0;" edge="1" parent="1" source="q2rgu7KSPJ2qD33lPn5Z-24">
          <mxGeometry width="50" height="50" relative="1" as="geometry">
            <mxPoint x="620" y="590" as="sourcePoint" />
            <mxPoint x="690" y="580" as="targetPoint" />
          </mxGeometry>
        </mxCell>
        <mxCell id="q2rgu7KSPJ2qD33lPn5Z-26" value="microservice api communique with rabbit MQ to auth microservice&amp;nbsp;" style="rounded=0;whiteSpace=wrap;html=1;" vertex="1" parent="1">
          <mxGeometry x="690" y="555" width="120" height="60" as="geometry" />
        </mxCell>
        <mxCell id="q2rgu7KSPJ2qD33lPn5Z-27" value="auth request mongo db" style="rounded=0;whiteSpace=wrap;html=1;" vertex="1" parent="1">
          <mxGeometry x="870" y="550" width="120" height="60" as="geometry" />
        </mxCell>
        <mxCell id="q2rgu7KSPJ2qD33lPn5Z-28" value="" style="endArrow=classic;html=1;rounded=0;entryX=0;entryY=0.75;entryDx=0;entryDy=0;" edge="1" parent="1" target="q2rgu7KSPJ2qD33lPn5Z-27">
          <mxGeometry width="50" height="50" relative="1" as="geometry">
            <mxPoint x="810" y="590" as="sourcePoint" />
            <mxPoint x="860" y="540" as="targetPoint" />
          </mxGeometry>
        </mxCell>
        <mxCell id="q2rgu7KSPJ2qD33lPn5Z-29" value="" style="endArrow=classic;html=1;rounded=0;exitX=0.42;exitY=0.97;exitDx=0;exitDy=0;exitPerimeter=0;" edge="1" parent="1" source="q2rgu7KSPJ2qD33lPn5Z-27">
          <mxGeometry width="50" height="50" relative="1" as="geometry">
            <mxPoint x="910" y="680" as="sourcePoint" />
            <mxPoint x="920" y="670" as="targetPoint" />
          </mxGeometry>
        </mxCell>
        <mxCell id="q2rgu7KSPJ2qD33lPn5Z-47" style="edgeStyle=orthogonalEdgeStyle;rounded=0;orthogonalLoop=1;jettySize=auto;html=1;exitX=0;exitY=0.5;exitDx=0;exitDy=0;entryX=0.58;entryY=0.957;entryDx=0;entryDy=0;entryPerimeter=0;" edge="1" parent="1" source="q2rgu7KSPJ2qD33lPn5Z-30" target="q2rgu7KSPJ2qD33lPn5Z-24">
          <mxGeometry relative="1" as="geometry">
            <mxPoint x="860" y="700" as="targetPoint" />
          </mxGeometry>
        </mxCell>
        <mxCell id="q2rgu7KSPJ2qD33lPn5Z-30" value="database return the new user&amp;nbsp;" style="rounded=0;whiteSpace=wrap;html=1;" vertex="1" parent="1">
          <mxGeometry x="870" y="670" width="120" height="60" as="geometry" />
        </mxCell>
        <mxCell id="q2rgu7KSPJ2qD33lPn5Z-31" value="application login" style="rounded=0;whiteSpace=wrap;html=1;" vertex="1" parent="1">
          <mxGeometry x="290" y="660" width="120" height="60" as="geometry" />
        </mxCell>
        <mxCell id="q2rgu7KSPJ2qD33lPn5Z-32" value="" style="endArrow=classic;html=1;rounded=0;entryX=0;entryY=0.5;entryDx=0;entryDy=0;" edge="1" parent="1" target="q2rgu7KSPJ2qD33lPn5Z-31">
          <mxGeometry width="50" height="50" relative="1" as="geometry">
            <mxPoint x="180" y="600" as="sourcePoint" />
            <mxPoint x="240" y="600" as="targetPoint" />
          </mxGeometry>
        </mxCell>
        <mxCell id="q2rgu7KSPJ2qD33lPn5Z-33" value="" style="endArrow=classic;html=1;rounded=0;entryX=0.5;entryY=1;entryDx=0;entryDy=0;" edge="1" parent="1" target="q2rgu7KSPJ2qD33lPn5Z-24">
          <mxGeometry width="50" height="50" relative="1" as="geometry">
            <mxPoint x="410" y="700" as="sourcePoint" />
            <mxPoint x="460" y="650" as="targetPoint" />
          </mxGeometry>
        </mxCell>
        <mxCell id="q2rgu7KSPJ2qD33lPn5Z-35" value="create order" style="rounded=0;whiteSpace=wrap;html=1;" vertex="1" parent="1">
          <mxGeometry x="290" y="750" width="120" height="60" as="geometry" />
        </mxCell>
        <mxCell id="q2rgu7KSPJ2qD33lPn5Z-36" value="" style="endArrow=classic;html=1;rounded=0;entryX=0;entryY=0.5;entryDx=0;entryDy=0;" edge="1" parent="1" target="q2rgu7KSPJ2qD33lPn5Z-35">
          <mxGeometry width="50" height="50" relative="1" as="geometry">
            <mxPoint x="150" y="610" as="sourcePoint" />
            <mxPoint x="330" y="740" as="targetPoint" />
          </mxGeometry>
        </mxCell>
        <mxCell id="q2rgu7KSPJ2qD33lPn5Z-37" value="" style="endArrow=classic;html=1;rounded=0;" edge="1" parent="1">
          <mxGeometry width="50" height="50" relative="1" as="geometry">
            <mxPoint x="410" y="779.5" as="sourcePoint" />
            <mxPoint x="510" y="779.5" as="targetPoint" />
          </mxGeometry>
        </mxCell>
        <mxCell id="q2rgu7KSPJ2qD33lPn5Z-38" value="front end request microservice order" style="rounded=0;whiteSpace=wrap;html=1;" vertex="1" parent="1">
          <mxGeometry x="500" y="750" width="120" height="60" as="geometry" />
        </mxCell>
        <mxCell id="q2rgu7KSPJ2qD33lPn5Z-42" style="edgeStyle=orthogonalEdgeStyle;rounded=0;orthogonalLoop=1;jettySize=auto;html=1;exitX=1;exitY=0.5;exitDx=0;exitDy=0;entryX=0;entryY=0.5;entryDx=0;entryDy=0;" edge="1" parent="1" source="q2rgu7KSPJ2qD33lPn5Z-39" target="q2rgu7KSPJ2qD33lPn5Z-41">
          <mxGeometry relative="1" as="geometry" />
        </mxCell>
        <mxCell id="q2rgu7KSPJ2qD33lPn5Z-39" value="mong db create new order" style="rounded=0;whiteSpace=wrap;html=1;" vertex="1" parent="1">
          <mxGeometry x="707" y="760" width="120" height="60" as="geometry" />
        </mxCell>
        <mxCell id="q2rgu7KSPJ2qD33lPn5Z-40" value="" style="endArrow=classic;html=1;rounded=0;exitX=1;exitY=0.5;exitDx=0;exitDy=0;entryX=0.025;entryY=0.333;entryDx=0;entryDy=0;entryPerimeter=0;" edge="1" parent="1" source="q2rgu7KSPJ2qD33lPn5Z-38" target="q2rgu7KSPJ2qD33lPn5Z-39">
          <mxGeometry width="50" height="50" relative="1" as="geometry">
            <mxPoint x="640" y="800" as="sourcePoint" />
            <mxPoint x="700" y="800" as="targetPoint" />
            <Array as="points">
              <mxPoint x="660" y="780" />
            </Array>
          </mxGeometry>
        </mxCell>
        <mxCell id="q2rgu7KSPJ2qD33lPn5Z-46" style="edgeStyle=orthogonalEdgeStyle;rounded=0;orthogonalLoop=1;jettySize=auto;html=1;exitX=1;exitY=0.5;exitDx=0;exitDy=0;entryX=0.437;entryY=1.027;entryDx=0;entryDy=0;entryPerimeter=0;" edge="1" parent="1" source="q2rgu7KSPJ2qD33lPn5Z-41" target="q2rgu7KSPJ2qD33lPn5Z-38">
          <mxGeometry relative="1" as="geometry">
            <mxPoint x="977" y="880" as="sourcePoint" />
            <mxPoint x="537" y="900" as="targetPoint" />
            <Array as="points">
              <mxPoint x="1010" y="880" />
              <mxPoint x="970" y="880" />
              <mxPoint x="970" y="881" />
              <mxPoint x="758" y="881" />
              <mxPoint x="758" y="880" />
              <mxPoint x="538" y="880" />
              <mxPoint x="538" y="812" />
            </Array>
          </mxGeometry>
        </mxCell>
        <mxCell id="q2rgu7KSPJ2qD33lPn5Z-41" value="retunr new order" style="rounded=0;whiteSpace=wrap;html=1;" vertex="1" parent="1">
          <mxGeometry x="890" y="760" width="120" height="60" as="geometry" />
        </mxCell>
        <mxCell id="q2rgu7KSPJ2qD33lPn5Z-48" value="view order" style="rounded=0;whiteSpace=wrap;html=1;" vertex="1" parent="1">
          <mxGeometry x="290" y="850" width="120" height="60" as="geometry" />
        </mxCell>
        <mxCell id="q2rgu7KSPJ2qD33lPn5Z-49" value="" style="endArrow=classic;html=1;rounded=0;entryX=0;entryY=0.5;entryDx=0;entryDy=0;exitX=1;exitY=1;exitDx=0;exitDy=0;exitPerimeter=0;" edge="1" parent="1" source="q2rgu7KSPJ2qD33lPn5Z-18" target="q2rgu7KSPJ2qD33lPn5Z-48">
          <mxGeometry width="50" height="50" relative="1" as="geometry">
            <mxPoint x="180" y="770" as="sourcePoint" />
            <mxPoint x="230" y="720" as="targetPoint" />
          </mxGeometry>
        </mxCell>
        <mxCell id="q2rgu7KSPJ2qD33lPn5Z-50" value="" style="endArrow=classic;html=1;rounded=0;" edge="1" parent="1" target="q2rgu7KSPJ2qD33lPn5Z-38">
          <mxGeometry width="50" height="50" relative="1" as="geometry">
            <mxPoint x="410" y="880" as="sourcePoint" />
            <mxPoint x="460" y="830" as="targetPoint" />
          </mxGeometry>
        </mxCell>
        <mxCell id="q2rgu7KSPJ2qD33lPn5Z-56" style="edgeStyle=orthogonalEdgeStyle;rounded=0;orthogonalLoop=1;jettySize=auto;html=1;exitX=0.25;exitY=1;exitDx=0;exitDy=0;" edge="1" parent="1" source="q2rgu7KSPJ2qD33lPn5Z-52" target="q2rgu7KSPJ2qD33lPn5Z-53">
          <mxGeometry relative="1" as="geometry" />
        </mxCell>
        <mxCell id="q2rgu7KSPJ2qD33lPn5Z-52" value="Front end" style="rounded=0;whiteSpace=wrap;html=1;" vertex="1" parent="1">
          <mxGeometry x="1130" y="120" width="220" height="60" as="geometry" />
        </mxCell>
        <mxCell id="q2rgu7KSPJ2qD33lPn5Z-53" value="Microserfice order" style="shape=cylinder3;whiteSpace=wrap;html=1;boundedLbl=1;backgroundOutline=1;size=15;" vertex="1" parent="1">
          <mxGeometry x="1160" y="290" width="60" height="80" as="geometry" />
        </mxCell>
        <mxCell id="q2rgu7KSPJ2qD33lPn5Z-54" value="microservice&amp;nbsp;&lt;div&gt;api&lt;/div&gt;" style="shape=cylinder3;whiteSpace=wrap;html=1;boundedLbl=1;backgroundOutline=1;size=15;" vertex="1" parent="1">
          <mxGeometry x="1310" y="250" width="60" height="80" as="geometry" />
        </mxCell>
        <mxCell id="q2rgu7KSPJ2qD33lPn5Z-55" value="" style="endArrow=classic;html=1;rounded=0;entryX=0.527;entryY=0.365;entryDx=0;entryDy=0;entryPerimeter=0;exitX=0.75;exitY=1;exitDx=0;exitDy=0;" edge="1" parent="1" source="q2rgu7KSPJ2qD33lPn5Z-52" target="q2rgu7KSPJ2qD33lPn5Z-54">
          <mxGeometry width="50" height="50" relative="1" as="geometry">
            <mxPoint x="1240" y="190" as="sourcePoint" />
            <mxPoint x="1320" y="170" as="targetPoint" />
          </mxGeometry>
        </mxCell>
        <mxCell id="q2rgu7KSPJ2qD33lPn5Z-57" value="microservice&amp;nbsp;&lt;div&gt;auth&lt;/div&gt;" style="shape=cylinder3;whiteSpace=wrap;html=1;boundedLbl=1;backgroundOutline=1;size=15;" vertex="1" parent="1">
          <mxGeometry x="1310" y="400" width="60" height="80" as="geometry" />
        </mxCell>
        <mxCell id="q2rgu7KSPJ2qD33lPn5Z-58" style="edgeStyle=orthogonalEdgeStyle;rounded=0;orthogonalLoop=1;jettySize=auto;html=1;exitX=0.5;exitY=1;exitDx=0;exitDy=0;exitPerimeter=0;entryX=0.145;entryY=1;entryDx=0;entryDy=-4.35;entryPerimeter=0;" edge="1" parent="1" source="q2rgu7KSPJ2qD33lPn5Z-54" target="q2rgu7KSPJ2qD33lPn5Z-54">
          <mxGeometry relative="1" as="geometry" />
        </mxCell>
        <mxCell id="q2rgu7KSPJ2qD33lPn5Z-59" value="" style="endArrow=classic;html=1;rounded=0;exitX=0.5;exitY=1;exitDx=0;exitDy=0;exitPerimeter=0;" edge="1" parent="1" source="q2rgu7KSPJ2qD33lPn5Z-54" target="q2rgu7KSPJ2qD33lPn5Z-57">
          <mxGeometry width="50" height="50" relative="1" as="geometry">
            <mxPoint x="1310" y="410" as="sourcePoint" />
            <mxPoint x="1360" y="360" as="targetPoint" />
          </mxGeometry>
        </mxCell>
        <mxCell id="q2rgu7KSPJ2qD33lPn5Z-60" value="Mongo db&amp;nbsp;" style="rounded=0;whiteSpace=wrap;html=1;" vertex="1" parent="1">
          <mxGeometry x="1180" y="510" width="250" height="60" as="geometry" />
        </mxCell>
        <mxCell id="q2rgu7KSPJ2qD33lPn5Z-61" value="" style="endArrow=classic;html=1;rounded=0;exitX=0.5;exitY=1;exitDx=0;exitDy=0;exitPerimeter=0;entryX=0.054;entryY=0.012;entryDx=0;entryDy=0;entryPerimeter=0;" edge="1" parent="1" source="q2rgu7KSPJ2qD33lPn5Z-53" target="q2rgu7KSPJ2qD33lPn5Z-60">
          <mxGeometry width="50" height="50" relative="1" as="geometry">
            <mxPoint x="1160" y="450" as="sourcePoint" />
            <mxPoint x="1210" y="400" as="targetPoint" />
          </mxGeometry>
        </mxCell>
        <mxCell id="q2rgu7KSPJ2qD33lPn5Z-62" value="" style="endArrow=classic;html=1;rounded=0;exitX=0.5;exitY=1;exitDx=0;exitDy=0;exitPerimeter=0;" edge="1" parent="1" source="q2rgu7KSPJ2qD33lPn5Z-57" target="q2rgu7KSPJ2qD33lPn5Z-60">
          <mxGeometry width="50" height="50" relative="1" as="geometry">
            <mxPoint x="1340" y="570" as="sourcePoint" />
            <mxPoint x="1390" y="520" as="targetPoint" />
            <Array as="points">
              <mxPoint x="1340" y="510" />
            </Array>
          </mxGeometry>
        </mxCell>
        <mxCell id="q2rgu7KSPJ2qD33lPn5Z-63" value="rabbitMQ" style="text;html=1;align=center;verticalAlign=middle;whiteSpace=wrap;rounded=0;" vertex="1" parent="1">
          <mxGeometry x="1340" y="350" width="60" height="30" as="geometry" />
        </mxCell>
        <mxCell id="q2rgu7KSPJ2qD33lPn5Z-64" value="microfrontend&lt;div&gt;order manage&lt;/div&gt;" style="rounded=0;whiteSpace=wrap;html=1;" vertex="1" parent="1">
          <mxGeometry x="1450" y="120" width="120" height="60" as="geometry" />
        </mxCell>
        <mxCell id="q2rgu7KSPJ2qD33lPn5Z-65" value="" style="endArrow=classic;html=1;rounded=0;entryX=0;entryY=0.25;entryDx=0;entryDy=0;" edge="1" parent="1" target="q2rgu7KSPJ2qD33lPn5Z-64">
          <mxGeometry width="50" height="50" relative="1" as="geometry">
            <mxPoint x="1350" y="160" as="sourcePoint" />
            <mxPoint x="1400" y="110" as="targetPoint" />
          </mxGeometry>
        </mxCell>
      </root>
    </mxGraphModel>
  </diagram>
</mxfile>
